<svg width="39" height="26" viewBox="0 0 39 26" fill="none" xmlns="http://www.w3.org/2000/svg">
<path d="M36.4296 19.6383C36.1589 19.6383 35.8882 19.5738 35.6433 19.4578C33.7355 18.5297 31.4409 18.027 29.0304 18.027H2.75928C2.16631 18.027 1.6249 17.7434 1.28975 17.2535C0.954591 16.7766 0.877248 16.1578 1.0835 15.6035L4.83467 5.54884C4.84756 5.52306 4.84756 5.51017 4.86045 5.48439C6.07217 2.54533 8.921 0.637512 12.105 0.637512H28.0765C31.6343 0.637512 34.7538 3.03517 35.6562 6.47697C35.6562 6.48986 35.669 6.51564 35.669 6.52853L38.1827 17.4211C38.3374 18.0914 38.0925 18.8004 37.5511 19.2258C37.2288 19.5094 36.8292 19.6383 36.4296 19.6383ZM5.35029 14.4434H29.0433C30.7448 14.4434 32.3948 14.6496 33.9546 15.0492L32.1886 7.3922C31.6858 5.53595 29.9972 4.24689 28.0765 4.24689H12.0921C10.3776 4.24689 8.84365 5.26525 8.17334 6.85079L5.35029 14.4434Z" fill="#F0BF5F"/>
<path d="M22.9589 25.568C21.9663 25.568 21.1671 24.7688 21.1671 23.7762V3.12541C21.1671 2.13284 21.9663 1.33362 22.9589 1.33362C23.9515 1.33362 24.7507 2.13284 24.7507 3.12541V23.7633C24.7507 24.7688 23.9515 25.568 22.9589 25.568Z" fill="#F0BF5F"/>
</svg>
